<svg width="100" height="100" viewBox="0 0 100 100" fill="none" xmlns="http://www.w3.org/2000/svg">
<g clip-path="url(#clip0)">
<path fill-rule="evenodd" clip-rule="evenodd" d="M88.6201 42.0381C94.557 42.0381 99.3869 46.9061 99.3869 52.8938C99.3869 58.8774 94.557 63.7455 88.6201 63.7455H41.8071C34.357 63.7455 28.2944 57.6327 28.2944 50.1194C28.2944 42.6061 34.357 36.4933 41.8071 36.4933C43.1944 36.4933 44.5735 36.7086 45.9011 37.1331L46.7689 37.4099L47.074 36.5466C49.9353 28.4366 57.5811 22.9882 66.0989 22.9882C76.5133 22.9882 85.1569 30.8542 86.2061 41.2875L86.303 42.2534L87.2595 42.1344C87.7873 42.0688 88.2202 42.0381 88.6201 42.0381Z" fill="#C8D0D6"/>
<path fill-rule="evenodd" clip-rule="evenodd" d="M11.8943 53.3306C5.33686 53.3306 -0.000183105 58.6909 -0.000183105 65.2814C-0.000183105 71.8679 5.33686 77.2302 11.8943 77.2302H63.6094C71.8427 77.2302 78.5383 70.5002 78.5383 62.2281C78.5383 53.9561 71.8427 47.2261 63.6094 47.2261C62.0777 47.2261 60.5543 47.4639 59.0866 47.9294L58.1301 48.2349L57.792 47.2835C54.6319 38.3552 46.1841 32.3573 36.7737 32.3573C25.2688 32.3573 15.7203 41.019 14.5618 52.5043L14.4546 53.5685L13.3991 53.4373C12.8137 53.3635 12.3354 53.3306 11.8943 53.3306Z" fill="#EDF3F9"/>
</g>
<defs>
<clipPath id="clip0">
<rect width="100" height="56" fill="white" transform="translate(0 22)"/>
</clipPath>
</defs>
</svg>
